<svg width="40" height="40" viewBox="0 0 40 40" fill="none" xmlns="http://www.w3.org/2000/svg">
<path d="M20 0C8.954 0 0 8.954 0 20C0 31.046 8.954 40 20 40C31.046 40 40 31.046 40 20C40 8.954 31.046 0 20 0ZM20 2.898C24.357 2.898 28.334 4.528 31.354 7.21C29.135 10.137 25.764 12.086 22.386 13.405C20.545 10.037 18.278 6.486 15.971 3.375C17.262 3.063 18.611 2.898 20 2.898ZM12.724 4.519C14.953 7.854 17.113 10.947 19.087 14.448C14.096 15.741 8.45802 16.517 3.24902 16.53C4.34702 11.202 7.926 6.778 12.724 4.519ZM33.251 9.188C35.637 12.107 37.074 15.83 37.102 19.887C33.146 19.108 29.211 18.903 25.206 19.307C24.755 18.184 24.21 17.118 23.687 15.967C27.14 14.574 30.832 12.19 33.251 9.188ZM20.476 17.094C20.904 18.005 21.4 18.97 21.865 19.957C16.295 22.413 10.371 25.695 7.29501 31.449C4.56201 28.418 2.89801 24.402 2.89801 20C2.89801 19.833 2.90101 19.666 2.90601 19.5C8.87101 19.471 14.726 18.725 20.476 17.094ZM37.044 21.424C37.039 21.49 37.033 21.557 37.026 21.623C37.033 21.557 37.039 21.491 37.044 21.424ZM29.513 21.757C31.999 21.749 34.568 22.096 36.889 22.707C36.13 27.483 33.392 31.602 29.542 34.194C28.624 30.019 27.749 26.024 26.202 21.996C27.269 21.837 28.383 21.76 29.513 21.757ZM36.978 22.067C36.966 22.165 36.955 22.261 36.941 22.358C36.955 22.26 36.967 22.164 36.978 22.067ZM23.037 22.778C24.614 26.85 25.851 31.36 26.681 35.749C24.628 36.621 22.371 37.103 20 37.103C16.045 37.103 12.403 35.759 9.50601 33.504C12.603 28.479 17.4 24.677 23.037 22.778Z" fill="#262B2E"/>
</svg>
