<svg width="42" height="42" viewBox="0 0 42 42" fill="none" xmlns="http://www.w3.org/2000/svg">
<path d="M21 0.999512C9.954 0.999512 1 9.95351 1 20.9995C1 32.0455 9.954 40.9995 21 40.9995C32.046 40.9995 41 32.0455 41 20.9995C41 9.95351 32.046 0.999512 21 0.999512ZM21 3.89751C25.357 3.89751 29.334 5.52751 32.354 8.20951C30.135 11.1365 26.764 13.0855 23.386 14.4045C21.545 11.0365 19.278 7.48551 16.971 4.37451C18.262 4.06251 19.611 3.89751 21 3.89751ZM13.724 5.51851C15.953 8.85351 18.113 11.9465 20.087 15.4475C15.096 16.7405 9.45802 17.5165 4.24902 17.5295C5.34702 12.2015 8.926 7.77751 13.724 5.51851ZM34.251 10.1875C36.637 13.1065 38.074 16.8295 38.102 20.8865C34.146 20.1075 30.211 19.9025 26.206 20.3065C25.755 19.1835 25.21 18.1175 24.687 16.9665C28.14 15.5735 31.832 13.1895 34.251 10.1875ZM21.476 18.0935C21.904 19.0045 22.4 19.9695 22.865 20.9565C17.295 23.4125 11.371 26.6945 8.29501 32.4485C5.56201 29.4175 3.89801 25.4015 3.89801 20.9995C3.89801 20.8325 3.90101 20.6655 3.90601 20.4995C9.87101 20.4705 15.726 19.7245 21.476 18.0935ZM38.044 22.4235C38.039 22.4895 38.033 22.5565 38.026 22.6225C38.033 22.5565 38.039 22.4905 38.044 22.4235ZM30.513 22.7565C32.999 22.7485 35.568 23.0955 37.889 23.7065C37.13 28.4825 34.392 32.6015 30.542 35.1935C29.624 31.0185 28.749 27.0235 27.202 22.9955C28.269 22.8365 29.383 22.7595 30.513 22.7565ZM37.978 23.0665C37.966 23.1645 37.955 23.2605 37.941 23.3575C37.955 23.2595 37.967 23.1635 37.978 23.0665ZM24.037 23.7775C25.614 27.8495 26.851 32.3595 27.681 36.7485C25.628 37.6205 23.371 38.1025 21 38.1025C17.045 38.1025 13.403 36.7585 10.506 34.5035C13.603 29.4785 18.4 25.6765 24.037 23.7775Z" fill="#E9EAEC"/>
</svg>
