<svg width="157" height="310" viewBox="0 0 157 310" fill="none" xmlns="http://www.w3.org/2000/svg">
<path d="M5 165.106H38.981V305C38.981 307.762 41.219 310 43.981 310H101.597C104.359 310 106.597 307.762 106.597 305V165.765H145.661C148.201 165.765 150.338 163.859 150.628 161.336L156.561 109.834C156.724 108.417 156.275 106.998 155.327 105.935C154.378 104.871 153.02 104.262 151.595 104.262H106.599V71.978C106.599 62.246 111.839 57.311 122.175 57.311C123.648 57.311 151.595 57.311 151.595 57.311C154.357 57.311 156.595 55.072 156.595 52.311V5.037C156.595 2.275 154.357 0.037 151.595 0.037H111.05C110.764 0.023 110.129 0 109.193 0C102.158 0 77.705 1.381 58.389 19.151C36.987 38.843 39.962 62.421 40.673 66.509V104.261H5C2.238 104.261 0 106.499 0 109.261V160.105C0 162.867 2.238 165.106 5 165.106Z" fill="#262B2E"/>
</svg>
