<svg width="30" height="30" viewBox="0 0 30 30" fill="none" xmlns="http://www.w3.org/2000/svg">
<path d="M15.7031 0.380615C9.69094 0.380615 3.75 4.38843 3.75 10.875C3.75 15 6.07031 17.3437 7.47656 17.3437C8.05687 17.3437 8.39062 15.7266 8.39062 15.27C8.39062 14.7253 7.00219 13.5647 7.00219 11.2969C7.00219 6.58593 10.5881 3.24562 15.2287 3.24562C19.2187 3.24562 22.1719 5.51343 22.1719 9.67968C22.1719 12.7912 20.9241 18.6272 16.8806 18.6272C15.4219 18.6272 14.1731 17.5725 14.1731 16.0612C14.1731 13.8459 15.72 11.7019 15.72 9.41624C15.72 5.5378 10.2178 6.24093 10.2178 10.9284C10.2178 11.9128 10.3406 13.0022 10.7803 13.8994C9.97125 17.3803 8.31937 22.5656 8.31937 26.1516C8.31937 27.2587 8.47781 28.3491 8.58281 29.4562C8.78156 29.6794 8.68219 29.6559 8.98688 29.5444C11.94 25.5009 11.835 24.7106 13.1709 19.4194C13.8919 20.7909 15.7547 21.5287 17.2312 21.5287C23.4534 21.5287 26.2491 15.4641 26.2491 9.99749C26.2491 4.17936 21.2213 0.38249 15.7022 0.38249L15.7031 0.380615Z" fill="#262B2E"/>
</svg>
