<svg width="310" height="310" viewBox="0 0 310 310" fill="none" xmlns="http://www.w3.org/2000/svg">
<g clip-path="url(#clip0_324_25)">
<path d="M302.973 57.3879C298.103 59.5479 293.096 61.3709 287.98 62.8509C294.037 56.0009 298.655 47.9409 301.474 39.1209C302.106 37.1439 301.451 34.9799 299.826 33.6869C298.203 32.3929 295.948 32.2379 294.161 33.2969C283.296 39.7409 271.574 44.3719 259.283 47.0799C246.902 34.9819 230.086 28.0969 212.702 28.0969C176.007 28.0969 146.153 57.9499 146.153 94.6439C146.153 97.5339 146.336 100.408 146.698 103.242C101.163 99.2439 58.8298 76.8629 29.7598 41.2039C28.7238 39.9329 27.1278 39.2479 25.4938 39.3789C23.8588 39.5069 22.3898 40.4289 21.5638 41.8459C15.6678 51.9629 12.5508 63.5339 12.5508 75.3069C12.5508 91.3419 18.2758 106.556 28.3888 118.444C25.3138 117.379 22.3298 116.048 19.4818 114.467C17.9528 113.616 16.0868 113.629 14.5678 114.5C13.0478 115.371 12.0948 116.973 12.0548 118.724C12.0478 119.019 12.0478 119.314 12.0478 119.613C12.0478 143.548 24.9298 165.097 44.6248 176.842C42.9328 176.673 41.2418 176.428 39.5618 176.107C37.8298 175.776 36.0488 176.383 34.8808 177.704C33.7108 179.024 33.3238 180.864 33.8628 182.544C41.1528 205.304 59.9218 222.045 82.6118 227.149C63.7928 238.936 42.2718 245.11 19.6798 245.11C14.9658 245.11 10.2248 244.833 5.58477 244.284C3.27977 244.01 1.07577 245.371 0.290771 247.563C-0.494229 249.756 0.337771 252.201 2.29877 253.458C31.3218 272.067 64.8808 281.903 99.3458 281.903C167.1 281.903 209.485 249.953 233.11 223.15C262.57 189.729 279.466 145.492 279.466 101.783C279.466 99.9569 279.438 98.1129 279.382 96.2749C291.005 87.5179 301.012 76.9199 309.155 64.7389C310.392 62.8889 310.258 60.4439 308.825 58.7409C307.394 57.0369 305.009 56.4859 302.973 57.3879Z" fill="#E9EAEC"/>
</g>
<defs>
<clipPath id="clip0_324_25">
<rect width="310" height="310" fill="white"/>
</clipPath>
</defs>
</svg>
