<svg width="310" height="254" viewBox="0 0 310 254" fill="none" xmlns="http://www.w3.org/2000/svg">
<path d="M302.975 29.291C298.105 31.451 293.098 33.274 287.982 34.754C294.039 27.904 298.657 19.844 301.476 11.024C302.108 9.047 301.453 6.883 299.828 5.59C298.205 4.296 295.95 4.141 294.163 5.2C283.298 11.644 271.576 16.275 259.285 18.983C246.904 6.885 230.088 0 212.704 0C176.009 0 146.155 29.853 146.155 66.547C146.155 69.437 146.338 72.311 146.7 75.145C101.165 71.147 58.8322 48.766 29.7622 13.107C28.7262 11.836 27.1302 11.151 25.4962 11.282C23.8612 11.41 22.3922 12.332 21.5662 13.749C15.6702 23.866 12.5532 35.437 12.5532 47.21C12.5532 63.245 18.2782 78.459 28.3912 90.347C25.3162 89.282 22.3322 87.951 19.4842 86.37C17.9552 85.519 16.0892 85.532 14.5702 86.403C13.0502 87.274 12.0972 88.876 12.0572 90.627C12.0502 90.922 12.0502 91.217 12.0502 91.516C12.0502 115.451 24.9322 137 44.6272 148.745C42.9352 148.576 41.2442 148.331 39.5642 148.01C37.8322 147.679 36.0512 148.286 34.8832 149.607C33.7132 150.927 33.3262 152.767 33.8652 154.447C41.1552 177.207 59.9242 193.948 82.6142 199.052C63.7952 210.839 42.2742 217.013 19.6822 217.013C14.9682 217.013 10.2272 216.736 5.58721 216.187C3.28221 215.913 1.07821 217.274 0.293212 219.466C-0.491788 221.659 0.340212 224.104 2.30121 225.361C31.3242 243.97 64.8832 253.806 99.3482 253.806C167.102 253.806 209.487 221.856 233.112 195.053C262.572 161.632 279.468 117.395 279.468 73.686C279.468 71.86 279.44 70.016 279.384 68.178C291.007 59.421 301.014 48.823 309.157 36.642C310.394 34.792 310.26 32.347 308.827 30.644C307.396 28.94 305.011 28.389 302.975 29.291Z" fill="#262B2E"/>
</svg>
