<svg width="56" height="16" viewBox="0 0 56 16" fill="none" xmlns="http://www.w3.org/2000/svg">
<path d="M6.324 13L5.7 10.96H2.58L1.956 13H0L3.024 4.396H5.244L8.28 13H6.324ZM4.644 7.444C4.604 7.308 4.552 7.136 4.488 6.928C4.424 6.72 4.36 6.508 4.296 6.292C4.232 6.076 4.18 5.888 4.14 5.728C4.1 5.888 4.044 6.088 3.972 6.328C3.908 6.56 3.844 6.784 3.78 7C3.724 7.208 3.68 7.356 3.648 7.444L3.036 9.436H5.268L4.644 7.444ZM15.2332 6.448V13H13.8652L13.6252 12.16H13.5292C13.3932 12.384 13.2172 12.568 13.0012 12.712C12.7932 12.848 12.5612 12.948 12.3052 13.012C12.0492 13.084 11.7852 13.12 11.5132 13.12C11.0492 13.12 10.6412 13.036 10.2892 12.868C9.93716 12.7 9.66516 12.44 9.47316 12.088C9.28116 11.736 9.18516 11.28 9.18516 10.72V6.448H10.9732V10.276C10.9732 10.74 11.0572 11.092 11.2252 11.332C11.3932 11.572 11.6612 11.692 12.0292 11.692C12.3972 11.692 12.6812 11.608 12.8812 11.44C13.0892 11.272 13.2332 11.028 13.3132 10.708C13.4012 10.388 13.4452 9.996 13.4452 9.532V6.448H15.2332ZM19.1839 13.12C18.4559 13.12 17.8599 12.836 17.3959 12.268C16.9399 11.692 16.7119 10.848 16.7119 9.736C16.7119 8.616 16.9439 7.768 17.4079 7.192C17.8719 6.616 18.4799 6.328 19.2319 6.328C19.5439 6.328 19.8199 6.372 20.0599 6.46C20.2999 6.54 20.5039 6.652 20.6719 6.796C20.8479 6.94 20.9959 7.104 21.1159 7.288H21.1759C21.1519 7.16 21.1239 6.976 21.0919 6.736C21.0599 6.488 21.0439 6.236 21.0439 5.98V3.88H22.8319V13H21.4639L21.1159 12.148H21.0439C20.9319 12.324 20.7879 12.488 20.6119 12.64C20.4439 12.784 20.2439 12.9 20.0119 12.988C19.7799 13.076 19.5039 13.12 19.1839 13.12ZM19.8079 11.692C20.3039 11.692 20.6519 11.548 20.8519 11.26C21.0519 10.964 21.1559 10.524 21.1639 9.94V9.748C21.1639 9.108 21.0639 8.62 20.8639 8.284C20.6719 7.948 20.3119 7.78 19.7839 7.78C19.3919 7.78 19.0839 7.952 18.8599 8.296C18.6359 8.632 18.5239 9.12 18.5239 9.76C18.5239 10.4 18.6359 10.884 18.8599 11.212C19.0839 11.532 19.3999 11.692 19.8079 11.692ZM26.4896 6.448V13H24.7016V6.448H26.4896ZM25.6016 3.88C25.8656 3.88 26.0936 3.944 26.2856 4.072C26.4776 4.192 26.5736 4.42 26.5736 4.756C26.5736 5.084 26.4776 5.312 26.2856 5.44C26.0936 5.568 25.8656 5.632 25.6016 5.632C25.3296 5.632 25.0976 5.568 24.9056 5.44C24.7216 5.312 24.6296 5.084 24.6296 4.756C24.6296 4.42 24.7216 4.192 24.9056 4.072C25.0976 3.944 25.3296 3.88 25.6016 3.88ZM34.3099 9.712C34.3099 10.256 34.2339 10.74 34.0819 11.164C33.9379 11.588 33.7259 11.948 33.4459 12.244C33.1739 12.532 32.8419 12.752 32.4499 12.904C32.0579 13.048 31.6139 13.12 31.1179 13.12C30.6619 13.12 30.2379 13.048 29.8459 12.904C29.4619 12.752 29.1299 12.532 28.8499 12.244C28.5699 11.948 28.3499 11.588 28.1899 11.164C28.0379 10.74 27.9619 10.256 27.9619 9.712C27.9619 8.984 28.0899 8.372 28.3459 7.876C28.6019 7.372 28.9699 6.988 29.4499 6.724C29.9299 6.46 30.4979 6.328 31.1539 6.328C31.7699 6.328 32.3139 6.46 32.7859 6.724C33.2579 6.988 33.6299 7.372 33.9019 7.876C34.1739 8.372 34.3099 8.984 34.3099 9.712ZM29.7859 9.712C29.7859 10.144 29.8299 10.508 29.9179 10.804C30.0139 11.092 30.1619 11.312 30.3619 11.464C30.5619 11.608 30.8219 11.68 31.1419 11.68C31.4619 11.68 31.7179 11.608 31.9099 11.464C32.1099 11.312 32.2539 11.092 32.3419 10.804C32.4379 10.508 32.4859 10.144 32.4859 9.712C32.4859 9.28 32.4379 8.92 32.3419 8.632C32.2539 8.344 32.1099 8.128 31.9099 7.984C31.7099 7.84 31.4499 7.768 31.1299 7.768C30.6579 7.768 30.3139 7.932 30.0979 8.26C29.8899 8.58 29.7859 9.064 29.7859 9.712ZM38.6676 4.432C39.7716 4.432 40.5756 4.672 41.0796 5.152C41.5916 5.624 41.8476 6.276 41.8476 7.108C41.8476 7.484 41.7916 7.844 41.6796 8.188C41.5676 8.524 41.3796 8.828 41.1156 9.1C40.8596 9.364 40.5196 9.572 40.0956 9.724C39.6716 9.876 39.1476 9.952 38.5236 9.952H37.7436V13H35.9316V4.432H38.6676ZM38.5716 5.92H37.7436V8.464H38.3436C38.6876 8.464 38.9836 8.42 39.2316 8.332C39.4796 8.244 39.6716 8.104 39.8076 7.912C39.9436 7.72 40.0116 7.472 40.0116 7.168C40.0116 6.744 39.8956 6.432 39.6636 6.232C39.4316 6.024 39.0676 5.92 38.5716 5.92ZM46.9827 6.328C47.0707 6.328 47.1747 6.332 47.2947 6.34C47.4147 6.348 47.5107 6.36 47.5827 6.376L47.4507 8.056C47.3947 8.04 47.3107 8.028 47.1987 8.02C47.0947 8.004 47.0027 7.996 46.9227 7.996C46.6907 7.996 46.4667 8.028 46.2507 8.092C46.0347 8.148 45.8387 8.24 45.6627 8.368C45.4947 8.496 45.3587 8.668 45.2547 8.884C45.1587 9.092 45.1107 9.352 45.1107 9.664V13H43.3227V6.448H44.6787L44.9427 7.552H45.0267C45.1547 7.328 45.3147 7.124 45.5067 6.94C45.6987 6.756 45.9187 6.608 46.1667 6.496C46.4227 6.384 46.6947 6.328 46.9827 6.328ZM54.4896 9.712C54.4896 10.256 54.4136 10.74 54.2616 11.164C54.1176 11.588 53.9056 11.948 53.6256 12.244C53.3536 12.532 53.0216 12.752 52.6296 12.904C52.2376 13.048 51.7936 13.12 51.2976 13.12C50.8416 13.12 50.4176 13.048 50.0256 12.904C49.6416 12.752 49.3096 12.532 49.0296 12.244C48.7496 11.948 48.5296 11.588 48.3696 11.164C48.2176 10.74 48.1416 10.256 48.1416 9.712C48.1416 8.984 48.2696 8.372 48.5256 7.876C48.7816 7.372 49.1496 6.988 49.6296 6.724C50.1096 6.46 50.6776 6.328 51.3336 6.328C51.9496 6.328 52.4936 6.46 52.9656 6.724C53.4376 6.988 53.8096 7.372 54.0816 7.876C54.3536 8.372 54.4896 8.984 54.4896 9.712ZM49.9656 9.712C49.9656 10.144 50.0096 10.508 50.0976 10.804C50.1936 11.092 50.3416 11.312 50.5416 11.464C50.7416 11.608 51.0016 11.68 51.3216 11.68C51.6416 11.68 51.8976 11.608 52.0896 11.464C52.2896 11.312 52.4336 11.092 52.5216 10.804C52.6176 10.508 52.6656 10.144 52.6656 9.712C52.6656 9.28 52.6176 8.92 52.5216 8.632C52.4336 8.344 52.2896 8.128 52.0896 7.984C51.8896 7.84 51.6296 7.768 51.3096 7.768C50.8376 7.768 50.4936 7.932 50.2776 8.26C50.0696 8.58 49.9656 9.064 49.9656 9.712Z" fill="#BEC2C3"/>
<rect y="15" width="56" height="1" fill="#BEC2C3"/>
</svg>
