<svg width="72" height="24" viewBox="0 0 72 24" fill="none" xmlns="http://www.w3.org/2000/svg">
<rect x="2" y="2" width="20" height="20" rx="10" fill="#ACB8B8"/>
<path d="M28.324 16H25.876V15.376L26.62 15.292V7.96L25.876 7.864V7.24H28.324V7.864L27.58 7.96V15.292L28.324 15.376V16ZM35.1953 14.812V11.116C35.1953 10.612 35.1033 10.252 34.9193 10.036C34.7433 9.812 34.4353 9.7 33.9953 9.7C33.2353 9.7 32.4953 9.996 31.7753 10.588V15.292L32.6153 15.376V16H29.9873V15.376L30.8273 15.292V9.856L29.9873 9.76V9.136H31.2593C31.5073 9.136 31.6313 9.256 31.6313 9.496V9.964C32.4713 9.3 33.3193 8.968 34.1753 8.968C34.8633 8.968 35.3633 9.144 35.6753 9.496C35.9873 9.848 36.1433 10.388 36.1433 11.116V14.704C36.1433 15.144 36.3153 15.364 36.6593 15.364C36.8033 15.364 36.9713 15.34 37.1633 15.292L37.2713 16.012C36.9593 16.116 36.6513 16.168 36.3473 16.168C35.5793 16.168 35.1953 15.716 35.1953 14.812ZM41.518 16H38.542V15.376L39.382 15.292V9.796H38.542V9.136H39.382C39.422 8.304 39.626 7.672 39.994 7.24C40.37 6.8 40.95 6.58 41.734 6.58C42.246 6.58 42.686 6.684 43.054 6.892L42.802 7.6C42.514 7.408 42.15 7.312 41.71 7.312C40.854 7.312 40.394 7.92 40.33 9.136H41.746V9.796H40.33V15.292L41.518 15.376V16ZM44.4508 9.508V14.704C44.4508 15.144 44.6268 15.364 44.9788 15.364C45.1148 15.364 45.2788 15.34 45.4708 15.292L45.5908 16.012C45.2628 16.116 44.9268 16.168 44.5828 16.168C43.8708 16.168 43.5148 15.716 43.5148 14.812V9.856L42.7948 9.76V9.136H44.0908C44.3308 9.136 44.4508 9.26 44.4508 9.508ZM43.9948 8.02C43.8348 8.02 43.6908 7.96 43.5628 7.84C43.4428 7.72 43.3828 7.58 43.3828 7.42C43.3828 7.252 43.4428 7.108 43.5628 6.988C43.6908 6.86 43.8348 6.796 43.9948 6.796C44.1628 6.796 44.3068 6.86 44.4268 6.988C44.5468 7.108 44.6068 7.252 44.6068 7.42C44.6068 7.58 44.5468 7.72 44.4268 7.84C44.3068 7.96 44.1628 8.02 43.9948 8.02ZM52.0938 14.812V11.116C52.0938 10.612 52.0018 10.252 51.8178 10.036C51.6418 9.812 51.3338 9.7 50.8938 9.7C50.1338 9.7 49.3938 9.996 48.6738 10.588V15.292L49.5138 15.376V16H46.8857V15.376L47.7258 15.292V9.856L46.8857 9.76V9.136H48.1578C48.4058 9.136 48.5298 9.256 48.5298 9.496V9.964C49.3698 9.3 50.2178 8.968 51.0738 8.968C51.7618 8.968 52.2618 9.144 52.5738 9.496C52.8858 9.848 53.0418 10.388 53.0418 11.116V14.704C53.0418 15.144 53.2138 15.364 53.5578 15.364C53.7018 15.364 53.8698 15.34 54.0618 15.292L54.1698 16.012C53.8578 16.116 53.5498 16.168 53.2458 16.168C52.4778 16.168 52.0938 15.716 52.0938 14.812ZM57.0484 9.508V14.704C57.0484 15.144 57.2244 15.364 57.5764 15.364C57.7124 15.364 57.8764 15.34 58.0684 15.292L58.1884 16.012C57.8604 16.116 57.5244 16.168 57.1804 16.168C56.4684 16.168 56.1124 15.716 56.1124 14.812V9.856L55.3924 9.76V9.136H56.6884C56.9284 9.136 57.0484 9.26 57.0484 9.508ZM56.5924 8.02C56.4324 8.02 56.2884 7.96 56.1604 7.84C56.0404 7.72 55.9804 7.58 55.9804 7.42C55.9804 7.252 56.0404 7.108 56.1604 6.988C56.2884 6.86 56.4324 6.796 56.5924 6.796C56.7604 6.796 56.9044 6.86 57.0244 6.988C57.1444 7.108 57.2044 7.252 57.2044 7.42C57.2044 7.58 57.1444 7.72 57.0244 7.84C56.9044 7.96 56.7604 8.02 56.5924 8.02ZM59.1594 9.796V9.136H60.2034V7.576L61.1514 7.36V9.136H62.4594V9.796H61.1514V14.704C61.1514 15.136 61.3274 15.352 61.6794 15.352C61.9114 15.352 62.1354 15.308 62.3514 15.22L62.4594 15.952C62.0834 16.096 61.7034 16.168 61.3194 16.168C60.9434 16.168 60.6634 16.06 60.4794 15.844C60.2954 15.62 60.2034 15.268 60.2034 14.788V9.796H59.1594ZM66.3899 17.272C66.1739 17.888 65.9299 18.312 65.6579 18.544C65.3939 18.784 65.0339 18.904 64.5779 18.904C64.1299 18.904 63.7219 18.796 63.3539 18.58L63.6179 17.884C63.9139 18.052 64.2099 18.136 64.5059 18.136C64.9779 18.136 65.3059 17.884 65.4899 17.38L65.8739 16.288L63.1499 9.136H64.1099L66.2939 15.016L68.1179 9.448C68.1899 9.24 68.3379 9.136 68.5619 9.136H69.5219V9.772L68.9339 9.868L66.3899 17.272Z" fill="#ACB8B8"/>
</svg>
