<svg width="133" height="51" viewBox="0 0 133 51" fill="none" xmlns="http://www.w3.org/2000/svg">
<rect x="2.5" y="2.5" width="128" height="46" stroke="black" stroke-width="5"/>
<path d="M32.9606 22.44C32.9606 22.44 32.8473 22.3733 32.6206 22.24C32.394 22.1067 32.094 21.96 31.7206 21.8C31.3473 21.6267 30.9406 21.4733 30.5006 21.34C30.0606 21.2067 29.6273 21.14 29.2006 21.14C28.8673 21.14 28.594 21.1933 28.3806 21.3C28.1673 21.4067 28.0606 21.5867 28.0606 21.84C28.0606 22.08 28.1673 22.2733 28.3806 22.42C28.594 22.5667 28.894 22.7 29.2806 22.82C29.6806 22.94 30.154 23.0867 30.7006 23.26C31.5806 23.5267 32.3406 23.8333 32.9806 24.18C33.6206 24.5267 34.114 24.9733 34.4606 25.52C34.8073 26.0533 34.9806 26.7667 34.9806 27.66C34.9806 28.5133 34.8273 29.2333 34.5206 29.82C34.214 30.3933 33.8006 30.8533 33.2806 31.2C32.7606 31.5467 32.1806 31.8 31.5406 31.96C30.9006 32.1067 30.2473 32.18 29.5806 32.18C28.9006 32.18 28.1873 32.1133 27.4406 31.98C26.7073 31.8333 25.994 31.64 25.3006 31.4C24.6073 31.1467 23.974 30.8533 23.4006 30.52L25.0806 27.1C25.0806 27.1 25.214 27.18 25.4806 27.34C25.7473 27.5 26.1006 27.68 26.5406 27.88C26.9806 28.08 27.4673 28.26 28.0006 28.42C28.5473 28.58 29.094 28.66 29.6406 28.66C30.0673 28.66 30.3606 28.6067 30.5206 28.5C30.694 28.38 30.7806 28.2267 30.7806 28.04C30.7806 27.76 30.634 27.5467 30.3406 27.4C30.0473 27.24 29.6606 27.0933 29.1806 26.96C28.714 26.8133 28.194 26.6467 27.6206 26.46C26.794 26.18 26.114 25.8667 25.5806 25.52C25.0473 25.16 24.654 24.74 24.4006 24.26C24.1473 23.7667 24.0206 23.1733 24.0206 22.48C24.0206 21.4267 24.2673 20.5467 24.7606 19.84C25.254 19.1333 25.9006 18.6 26.7006 18.24C27.514 17.8667 28.3873 17.68 29.3206 17.68C30.014 17.68 30.6806 17.7667 31.3206 17.94C31.974 18.1 32.5806 18.3 33.1406 18.54C33.714 18.78 34.214 19.0067 34.6406 19.22L32.9606 22.44ZM49.2644 17.8V32H45.3644V26.44H40.6044V32H36.7044V17.8H40.6044V23.04H45.3644V17.8H49.2644ZM66.9973 32V17.8H73.1173C73.8107 17.8 74.4507 17.94 75.0373 18.22C75.624 18.5 76.1307 18.88 76.5573 19.36C76.984 19.8267 77.3107 20.3533 77.5373 20.94C77.7773 21.5267 77.8973 22.12 77.8973 22.72C77.8973 23.56 77.6973 24.3533 77.2973 25.1C76.9107 25.8467 76.364 26.46 75.6573 26.94C74.964 27.4067 74.1507 27.64 73.2173 27.64H70.8973V32H66.9973ZM70.8973 24.24H72.9573C73.1173 24.24 73.2707 24.1933 73.4173 24.1C73.564 24.0067 73.684 23.8467 73.7773 23.62C73.884 23.3933 73.9373 23.0933 73.9373 22.72C73.9373 22.32 73.8773 22.0133 73.7573 21.8C73.6507 21.5733 73.5107 21.42 73.3373 21.34C73.1773 21.2467 73.0173 21.2 72.8573 21.2H70.8973V24.24ZM83.3583 25.02V32H79.4583V17.8H82.4983L88.1983 25.02V17.8H92.0983V32H88.9983L83.3583 25.02ZM100.936 32.12C99.8564 32.12 98.8764 31.92 97.9964 31.52C97.1164 31.1067 96.3564 30.56 95.7164 29.88C95.0897 29.1867 94.6031 28.4133 94.2564 27.56C93.9231 26.6933 93.7564 25.8 93.7564 24.88C93.7564 23.9333 93.9364 23.0333 94.2964 22.18C94.6564 21.3267 95.1564 20.5667 95.7964 19.9C96.4497 19.22 97.2164 18.6867 98.0964 18.3C98.9897 17.9133 99.9631 17.72 101.016 17.72C102.096 17.72 103.076 17.9267 103.956 18.34C104.836 18.74 105.59 19.2867 106.216 19.98C106.843 20.6733 107.323 21.4533 107.656 22.32C108.003 23.1733 108.176 24.0533 108.176 24.96C108.176 25.8933 107.996 26.7867 107.636 27.64C107.29 28.4933 106.79 29.26 106.136 29.94C105.496 30.6067 104.736 31.14 103.856 31.54C102.976 31.9267 102.003 32.12 100.936 32.12ZM97.7164 24.92C97.7164 25.4 97.7831 25.8667 97.9164 26.32C98.0497 26.76 98.2497 27.16 98.5164 27.52C98.7831 27.8667 99.1164 28.1467 99.5164 28.36C99.9297 28.56 100.416 28.66 100.976 28.66C101.536 28.66 102.023 28.5533 102.436 28.34C102.85 28.1267 103.183 27.84 103.436 27.48C103.703 27.1067 103.896 26.7 104.016 26.26C104.15 25.8067 104.216 25.3467 104.216 24.88C104.216 24.4 104.15 23.94 104.016 23.5C103.883 23.06 103.683 22.6667 103.416 22.32C103.15 21.96 102.81 21.68 102.396 21.48C101.983 21.28 101.503 21.18 100.956 21.18C100.396 21.18 99.9097 21.2867 99.4964 21.5C99.0964 21.7133 98.7631 22 98.4964 22.36C98.2297 22.7067 98.0297 23.1067 97.8964 23.56C97.7764 24 97.7164 24.4533 97.7164 24.92Z" fill="black"/>
<path d="M58.1044 32.12C57.0244 32.12 56.0444 31.92 55.1644 31.52C54.2844 31.1067 53.5244 30.56 52.8844 29.88C52.2577 29.1867 51.771 28.4133 51.4244 27.56C51.091 26.6933 50.9244 25.8 50.9244 24.88C50.9244 23.9333 51.1044 23.0333 51.4644 22.18C51.8244 21.3267 52.3244 20.5667 52.9644 19.9C53.6177 19.22 54.3844 18.6867 55.2644 18.3C56.1577 17.9133 57.131 17.72 58.1844 17.72C59.2644 17.72 60.2444 17.9267 61.1244 18.34C62.0044 18.74 62.7577 19.2867 63.3844 19.98C64.011 20.6733 64.491 21.4533 64.8244 22.32C65.171 23.1733 65.3444 24.0533 65.3444 24.96C65.3444 25.8933 65.1644 26.7867 64.8044 27.64C64.4577 28.4933 63.9577 29.26 63.3044 29.94C62.6644 30.6067 61.9044 31.14 61.0244 31.54C60.1444 31.9267 59.171 32.12 58.1044 32.12ZM54.8844 24.92C54.8844 25.4 54.951 25.8667 55.0844 26.32C55.2177 26.76 55.4177 27.16 55.6844 27.52C55.951 27.8667 56.2844 28.1467 56.6844 28.36C57.0977 28.56 57.5844 28.66 58.1444 28.66C58.7044 28.66 59.191 28.5533 59.6044 28.34C60.0177 28.1267 60.351 27.84 60.6044 27.48C60.871 27.1067 61.0644 26.7 61.1844 26.26C61.3177 25.8067 61.3844 25.3467 61.3844 24.88C61.3844 24.4 61.3177 23.94 61.1844 23.5C61.051 23.06 60.851 22.6667 60.5844 22.32C60.3177 21.96 59.9777 21.68 59.5644 21.48C59.151 21.28 58.671 21.18 58.1244 21.18C57.5644 21.18 57.0777 21.2867 56.6644 21.5C56.2644 21.7133 55.931 22 55.6644 22.36C55.3977 22.7067 55.1977 23.1067 55.0644 23.56C54.9444 24 54.8844 24.4533 54.8844 24.92Z" fill="#88E4D2"/>
</svg>
