<svg width="61" height="33" viewBox="0 0 61 33" fill="none" xmlns="http://www.w3.org/2000/svg">
<path d="M28.2039 22V10.64H32.9239C33.4146 10.64 33.8572 10.7413 34.2519 10.944C34.6572 11.1467 35.0039 11.4187 35.2919 11.76C35.5906 12.0907 35.8199 12.464 35.9799 12.88C36.1506 13.296 36.2359 13.7227 36.2359 14.16C36.2359 14.7253 36.1239 15.2533 35.8999 15.744C35.6759 16.2347 35.3612 16.6453 34.9559 16.976C34.5612 17.3067 34.0972 17.5093 33.5639 17.584L36.3959 22H35.4519L32.6999 17.712H29.0199V22H28.2039ZM29.0199 16.96H33.0039C33.4946 16.96 33.9212 16.8267 34.2839 16.56C34.6466 16.2933 34.9239 15.9467 35.1159 15.52C35.3186 15.0933 35.4199 14.64 35.4199 14.16C35.4199 13.6693 35.3026 13.216 35.0679 12.8C34.8439 12.3733 34.5399 12.032 34.1559 11.776C33.7826 11.5093 33.3612 11.376 32.8919 11.376H29.0199V16.96ZM38.5945 22V10.64H39.4105V17.536L46.0345 10.64H46.9785L42.2585 15.616L47.2185 22H46.2745L41.7145 16.128L39.4105 18.496V22H38.5945ZM52.6538 22.08C51.8644 22.08 51.1444 21.92 50.4938 21.6C49.8431 21.2693 49.2831 20.832 48.8138 20.288C48.3444 19.744 47.9818 19.1307 47.7258 18.448C47.4698 17.7547 47.3418 17.0453 47.3418 16.32C47.3418 15.5627 47.4751 14.8427 47.7418 14.16C48.0084 13.4667 48.3818 12.8533 48.8618 12.32C49.3524 11.776 49.9178 11.3493 50.5578 11.04C51.2084 10.72 51.9124 10.56 52.6698 10.56C53.4698 10.56 54.1898 10.7253 54.8298 11.056C55.4804 11.3867 56.0404 11.8293 56.5098 12.384C56.9791 12.9387 57.3418 13.5573 57.5978 14.24C57.8538 14.9227 57.9818 15.616 57.9818 16.32C57.9818 17.088 57.8484 17.8187 57.5818 18.512C57.3151 19.1947 56.9364 19.808 56.4458 20.352C55.9658 20.8853 55.4004 21.3067 54.7498 21.616C54.1098 21.9253 53.4111 22.08 52.6538 22.08ZM48.1578 16.32C48.1578 16.9707 48.2698 17.5947 48.4938 18.192C48.7178 18.7893 49.0271 19.3227 49.4218 19.792C49.8271 20.2613 50.3018 20.6347 50.8458 20.912C51.4004 21.1893 52.0084 21.328 52.6698 21.328C53.3418 21.328 53.9551 21.184 54.5098 20.896C55.0644 20.608 55.5391 20.224 55.9338 19.744C56.3284 19.264 56.6271 18.7307 56.8298 18.144C57.0431 17.5467 57.1498 16.9387 57.1498 16.32C57.1498 15.6693 57.0378 15.0453 56.8138 14.448C56.6004 13.8507 56.2911 13.3173 55.8858 12.848C55.4804 12.3787 55.0004 12.0053 54.4458 11.728C53.9018 11.4507 53.3098 11.312 52.6698 11.312C51.9871 11.312 51.3684 11.456 50.8138 11.744C50.2591 12.032 49.7844 12.416 49.3898 12.896C49.0058 13.376 48.7018 13.9147 48.4778 14.512C48.2644 15.0987 48.1578 15.7013 48.1578 16.32Z" fill="#A9AEB1"/>
<path d="M13.2165 2H15.2498L25.4165 16V18L15.2498 31H13.2165L3.0498 18V16L13.2165 2Z" fill="#A9AEB1"/>
<path d="M13.2165 2H15.2498L25.4165 16V18L15.2498 31H13.2165L3.0498 18V16L13.2165 2Z" stroke="black"/>
<path d="M13.2169 13H15.2503L17.2836 16V17L15.2503 20H13.2169L11.1836 17V16L13.2169 13Z" fill="white"/>
</svg>
