<svg width="65" height="25" viewBox="0 0 65 25" fill="none" xmlns="http://www.w3.org/2000/svg">
<rect x="1.5" y="1.5" width="62" height="22" stroke="black" stroke-width="3"/>
<path d="M15.1965 11.22C15.1965 11.22 15.1398 11.1867 15.0265 11.12C14.9132 11.0533 14.7632 10.98 14.5765 10.9C14.3898 10.8133 14.1865 10.7367 13.9665 10.67C13.7465 10.6033 13.5298 10.57 13.3165 10.57C13.1498 10.57 13.0132 10.5967 12.9065 10.65C12.7998 10.7033 12.7465 10.7933 12.7465 10.92C12.7465 11.04 12.7998 11.1367 12.9065 11.21C13.0132 11.2833 13.1632 11.35 13.3565 11.41C13.5565 11.47 13.7932 11.5433 14.0665 11.63C14.5065 11.7633 14.8865 11.9167 15.2065 12.09C15.5265 12.2633 15.7732 12.4867 15.9465 12.76C16.1198 13.0267 16.2065 13.3833 16.2065 13.83C16.2065 14.2567 16.1298 14.6167 15.9765 14.91C15.8232 15.1967 15.6165 15.4267 15.3565 15.6C15.0965 15.7733 14.8065 15.9 14.4865 15.98C14.1665 16.0533 13.8398 16.09 13.5065 16.09C13.1665 16.09 12.8098 16.0567 12.4365 15.99C12.0698 15.9167 11.7132 15.82 11.3665 15.7C11.0198 15.5733 10.7032 15.4267 10.4165 15.26L11.2565 13.55C11.2565 13.55 11.3232 13.59 11.4565 13.67C11.5898 13.75 11.7665 13.84 11.9865 13.94C12.2065 14.04 12.4498 14.13 12.7165 14.21C12.9898 14.29 13.2632 14.33 13.5365 14.33C13.7498 14.33 13.8965 14.3033 13.9765 14.25C14.0632 14.19 14.1065 14.1133 14.1065 14.02C14.1065 13.88 14.0332 13.7733 13.8865 13.7C13.7398 13.62 13.5465 13.5467 13.3065 13.48C13.0732 13.4067 12.8132 13.3233 12.5265 13.23C12.1132 13.09 11.7732 12.9333 11.5065 12.76C11.2398 12.58 11.0432 12.37 10.9165 12.13C10.7898 11.8833 10.7265 11.5867 10.7265 11.24C10.7265 10.7133 10.8498 10.2733 11.0965 9.92C11.3432 9.56667 11.6665 9.3 12.0665 9.12C12.4732 8.93333 12.9098 8.84 13.3765 8.84C13.7232 8.84 14.0565 8.88333 14.3765 8.97C14.7032 9.05 15.0065 9.15 15.2865 9.27C15.5732 9.39 15.8232 9.50333 16.0365 9.61L15.1965 11.22ZM23.3484 8.9V16H21.3984V13.22H19.0184V16H17.0684V8.9H19.0184V11.52H21.3984V8.9H23.3484ZM33.7442 16V8.9H36.8042C37.1508 8.9 37.4708 8.97 37.7642 9.11C38.0575 9.25 38.3108 9.44 38.5242 9.68C38.7375 9.91333 38.9008 10.1767 39.0142 10.47C39.1342 10.7633 39.1942 11.06 39.1942 11.36C39.1942 11.78 39.0942 12.1767 38.8942 12.55C38.7008 12.9233 38.4275 13.23 38.0742 13.47C37.7275 13.7033 37.3208 13.82 36.8542 13.82H35.6942V16H33.7442ZM35.6942 12.12H36.7242C36.8042 12.12 36.8808 12.0967 36.9542 12.05C37.0275 12.0033 37.0875 11.9233 37.1342 11.81C37.1875 11.6967 37.2142 11.5467 37.2142 11.36C37.2142 11.16 37.1842 11.0067 37.1242 10.9C37.0708 10.7867 37.0008 10.71 36.9142 10.67C36.8342 10.6233 36.7542 10.6 36.6742 10.6H35.6942V12.12ZM41.9246 12.51V16H39.9746V8.9H41.4946L44.3446 12.51V8.9H46.2946V16H44.7446L41.9246 12.51ZM50.7137 16.06C50.1737 16.06 49.6837 15.96 49.2437 15.76C48.8037 15.5533 48.4237 15.28 48.1037 14.94C47.7904 14.5933 47.547 14.2067 47.3737 13.78C47.207 13.3467 47.1237 12.9 47.1237 12.44C47.1237 11.9667 47.2137 11.5167 47.3937 11.09C47.5737 10.6633 47.8237 10.2833 48.1437 9.95C48.4704 9.61 48.8537 9.34333 49.2937 9.15C49.7404 8.95667 50.227 8.86 50.7537 8.86C51.2937 8.86 51.7837 8.96333 52.2237 9.17C52.6637 9.37 53.0404 9.64333 53.3537 9.99C53.667 10.3367 53.907 10.7267 54.0737 11.16C54.247 11.5867 54.3337 12.0267 54.3337 12.48C54.3337 12.9467 54.2437 13.3933 54.0637 13.82C53.8904 14.2467 53.6404 14.63 53.3137 14.97C52.9937 15.3033 52.6137 15.57 52.1737 15.77C51.7337 15.9633 51.247 16.06 50.7137 16.06ZM49.1037 12.46C49.1037 12.7 49.137 12.9333 49.2037 13.16C49.2704 13.38 49.3704 13.58 49.5037 13.76C49.637 13.9333 49.8037 14.0733 50.0037 14.18C50.2104 14.28 50.4537 14.33 50.7337 14.33C51.0137 14.33 51.257 14.2767 51.4637 14.17C51.6704 14.0633 51.837 13.92 51.9637 13.74C52.097 13.5533 52.1937 13.35 52.2537 13.13C52.3204 12.9033 52.3537 12.6733 52.3537 12.44C52.3537 12.2 52.3204 11.97 52.2537 11.75C52.187 11.53 52.087 11.3333 51.9537 11.16C51.8204 10.98 51.6504 10.84 51.4437 10.74C51.237 10.64 50.997 10.59 50.7237 10.59C50.4437 10.59 50.2004 10.6433 49.9937 10.75C49.7937 10.8567 49.627 11 49.4937 11.18C49.3604 11.3533 49.2604 11.5533 49.1937 11.78C49.1337 12 49.1037 12.2267 49.1037 12.46Z" fill="black"/>
<path d="M28.5304 16.072C27.8824 16.072 27.2944 15.952 26.7664 15.712C26.2384 15.464 25.7824 15.136 25.3984 14.728C25.0224 14.312 24.7304 13.848 24.5224 13.336C24.3224 12.816 24.2224 12.28 24.2224 11.728C24.2224 11.16 24.3304 10.62 24.5464 10.108C24.7624 9.596 25.0624 9.14 25.4464 8.74C25.8384 8.332 26.2984 8.012 26.8264 7.78C27.3624 7.548 27.9464 7.432 28.5784 7.432C29.2264 7.432 29.8144 7.556 30.3424 7.804C30.8704 8.044 31.3224 8.372 31.6984 8.788C32.0744 9.204 32.3624 9.672 32.5624 10.192C32.7704 10.704 32.8744 11.232 32.8744 11.776C32.8744 12.336 32.7664 12.872 32.5504 13.384C32.3424 13.896 32.0424 14.356 31.6504 14.764C31.2664 15.164 30.8104 15.484 30.2824 15.724C29.7544 15.956 29.1704 16.072 28.5304 16.072ZM26.5984 11.752C26.5984 12.04 26.6384 12.32 26.7184 12.592C26.7984 12.856 26.9184 13.096 27.0784 13.312C27.2384 13.52 27.4384 13.688 27.6784 13.816C27.9264 13.936 28.2184 13.996 28.5544 13.996C28.8904 13.996 29.1824 13.932 29.4304 13.804C29.6784 13.676 29.8784 13.504 30.0304 13.288C30.1904 13.064 30.3064 12.82 30.3784 12.556C30.4584 12.284 30.4984 12.008 30.4984 11.728C30.4984 11.44 30.4584 11.164 30.3784 10.9C30.2984 10.636 30.1784 10.4 30.0184 10.192C29.8584 9.976 29.6544 9.808 29.4064 9.688C29.1584 9.568 28.8704 9.508 28.5424 9.508C28.2064 9.508 27.9144 9.572 27.6664 9.7C27.4264 9.828 27.2264 10 27.0664 10.216C26.9064 10.424 26.7864 10.664 26.7064 10.936C26.6344 11.2 26.5984 11.472 26.5984 11.752Z" fill="#88E4D2"/>
</svg>
