<svg width="70" height="21" viewBox="0 0 70 21" fill="none" xmlns="http://www.w3.org/2000/svg">
<path d="M8.33275 16.096C7.82075 16.096 7.32475 16.0747 6.84475 16.032C6.36475 16 5.92742 15.9627 5.53275 15.92C5.13808 15.8667 4.79675 15.808 4.50875 15.744L4.74875 14.192C5.22875 14.2347 5.78875 14.2667 6.42875 14.288C7.06875 14.3093 7.69808 14.32 8.31675 14.32C8.78608 14.32 9.18608 14.2827 9.51675 14.208C9.85808 14.1333 10.1248 13.9947 10.3168 13.792C10.5088 13.5893 10.6314 13.3013 10.6848 12.928L10.7648 12.384C10.7861 12.32 10.7968 12.256 10.7968 12.192C10.7968 12.128 10.7968 12.0693 10.7968 12.016C10.7968 11.6747 10.6794 11.4293 10.4448 11.28C10.2208 11.1307 9.85275 11.056 9.34075 11.056H8.22075C7.36742 11.056 6.70608 10.848 6.23675 10.432C5.76742 10.0053 5.53275 9.42933 5.53275 8.704C5.53275 8.49067 5.54875 8.272 5.58075 8.048L5.74075 7.072C5.85808 6.304 6.09275 5.70667 6.44475 5.28C6.80742 4.84267 7.27142 4.53867 7.83675 4.368C8.40208 4.18667 9.05808 4.096 9.80475 4.096C10.0394 4.096 10.3061 4.10667 10.6048 4.128C10.9034 4.13867 11.2128 4.16 11.5328 4.192C11.8528 4.224 12.1674 4.26133 12.4768 4.304C12.7968 4.34667 13.0901 4.4 13.3568 4.464L13.1168 6.016C12.7648 5.984 12.3701 5.96267 11.9328 5.952C11.4954 5.93067 11.0688 5.91467 10.6528 5.904C10.2368 5.89333 9.87942 5.888 9.58075 5.888C9.20742 5.888 8.88208 5.92533 8.60475 6C8.33808 6.07467 8.11408 6.21333 7.93275 6.416C7.76208 6.61867 7.65008 6.912 7.59675 7.296L7.51675 7.824C7.50608 7.89867 7.49542 7.968 7.48475 8.032C7.47408 8.096 7.46875 8.16 7.46875 8.224C7.46875 8.56533 7.56475 8.81067 7.75675 8.96C7.95942 9.09867 8.26875 9.168 8.68475 9.168H9.85275C10.8128 9.168 11.5328 9.38667 12.0128 9.824C12.4928 10.2507 12.7328 10.8213 12.7328 11.536C12.7328 11.728 12.7168 11.9413 12.6848 12.176L12.5087 13.28C12.4128 13.952 12.1994 14.496 11.8688 14.912C11.5381 15.3173 11.0848 15.616 10.5088 15.808C9.93275 16 9.20742 16.096 8.33275 16.096ZM15.3011 16L13.8451 7.424H15.8771L16.8051 14.112L19.5411 7.424H20.8691L22.0531 14.112L23.9571 9.36C24.0105 9.22133 24.0745 9.03467 24.1491 8.8C24.2238 8.55467 24.2931 8.29867 24.3571 8.032C24.4211 7.76533 24.4638 7.52 24.4851 7.296H26.4051C26.4051 7.60533 26.3625 7.93067 26.2771 8.272C26.2025 8.61333 26.1065 8.944 25.9891 9.264C25.8825 9.584 25.7705 9.86667 25.6531 10.112L22.8531 16H20.7571L19.7491 10.624L17.4131 16H15.3011ZM29.1941 16.096C28.7568 16.096 28.3568 15.9947 27.9941 15.792C27.6315 15.5893 27.3381 15.2747 27.1141 14.848C26.9008 14.4107 26.7941 13.8507 26.7941 13.168C26.7941 12.8693 26.8155 12.56 26.8581 12.24C26.9008 11.92 26.9381 11.648 26.9701 11.424C27.1195 10.496 27.3701 9.73333 27.7221 9.136C28.0741 8.528 28.5541 8.07467 29.1621 7.776C29.7808 7.47733 30.5488 7.328 31.4661 7.328C31.9141 7.328 32.3568 7.37067 32.7941 7.456C33.2421 7.53067 33.6528 7.64267 34.0261 7.792C34.3995 7.94133 34.7141 8.11733 34.9701 8.32L33.7541 16H32.0101L31.9141 15.12C31.7648 15.2373 31.5408 15.376 31.2421 15.536C30.9435 15.6853 30.6128 15.8187 30.2501 15.936C29.8981 16.0427 29.5461 16.096 29.1941 16.096ZM30.1221 14.496C30.5275 14.496 30.8901 14.4267 31.2101 14.288C31.5301 14.1387 31.8288 13.984 32.1061 13.824L32.8261 9.264C32.7088 9.2 32.5221 9.13067 32.2661 9.056C32.0101 8.97067 31.7115 8.928 31.3701 8.928C30.8475 8.928 30.4208 9.02933 30.0901 9.232C29.7701 9.43467 29.5141 9.73333 29.3221 10.128C29.1408 10.512 29.0021 10.9973 28.9061 11.584C28.8635 11.84 28.8315 12.0747 28.8101 12.288C28.7888 12.5013 28.7781 12.6773 28.7781 12.816C28.7781 13.328 28.8901 13.7387 29.1141 14.048C29.3488 14.3467 29.6848 14.496 30.1221 14.496ZM35.6159 16L36.9599 7.424H38.5919L38.7999 8.32C39.2052 8.04267 39.6692 7.808 40.1919 7.616C40.7145 7.41333 41.2852 7.312 41.9039 7.312C42.3945 7.312 42.7999 7.39733 43.1199 7.568C43.4505 7.73867 43.6905 7.97333 43.8399 8.272C43.9999 8.56 44.0799 8.896 44.0799 9.28C44.0799 9.44 44.0692 9.632 44.0479 9.856C44.0372 10.0693 43.9945 10.432 43.9199 10.944L43.1039 16H41.1359L41.9199 11.008C41.9519 10.752 41.9732 10.5653 41.9839 10.448C42.0052 10.3307 42.0159 10.2347 42.0159 10.16C42.0159 9.85067 41.9252 9.59467 41.7439 9.392C41.5625 9.18933 41.2479 9.088 40.7999 9.088C40.3732 9.088 39.9839 9.15733 39.6319 9.296C39.2799 9.43467 38.9279 9.62667 38.5759 9.872L37.5999 16H35.6159ZM48.3353 16.096C48.0153 16.096 47.6899 16.0853 47.3593 16.064C47.0393 16.0533 46.7246 16.032 46.4153 16C46.1166 15.9787 45.8339 15.9467 45.5673 15.904C45.3113 15.8613 45.0926 15.8133 44.9113 15.76L45.0872 14.592H48.7673C49.1299 14.592 49.4233 14.5333 49.6473 14.416C49.8819 14.288 50.0206 14.08 50.0633 13.792L50.1273 13.344C50.1379 13.2907 50.1433 13.2533 50.1433 13.232C50.1433 13.2 50.1433 13.1733 50.1433 13.152C50.1433 12.736 49.8659 12.528 49.3113 12.528H47.9353C47.4659 12.528 47.0499 12.4747 46.6873 12.368C46.3353 12.2507 46.0633 12.0747 45.8713 11.84C45.6793 11.5947 45.5833 11.28 45.5833 10.896C45.5833 10.7893 45.5833 10.6773 45.5833 10.56C45.5939 10.432 45.6099 10.304 45.6313 10.176L45.7433 9.552C45.8286 9.11467 45.9833 8.73067 46.2073 8.4C46.4419 8.06933 46.7886 7.808 47.2473 7.616C47.7166 7.424 48.3353 7.328 49.1033 7.328C49.4233 7.328 49.7859 7.344 50.1913 7.376C50.5966 7.408 50.9913 7.45067 51.3753 7.504C51.7699 7.54667 52.0953 7.60533 52.3513 7.68L52.1593 8.848H48.7352C48.3406 8.848 48.0526 8.91733 47.8713 9.056C47.6899 9.184 47.5673 9.392 47.5033 9.68L47.4553 10.016C47.4339 10.112 47.4179 10.192 47.4073 10.256C47.4073 10.3093 47.4073 10.3627 47.4073 10.416C47.4073 10.5973 47.4713 10.7307 47.5993 10.816C47.7379 10.8907 47.9779 10.928 48.3193 10.928H49.8233C50.4739 10.928 50.9966 11.0773 51.3913 11.376C51.7966 11.664 51.9993 12.0747 51.9993 12.608C51.9993 12.704 51.9939 12.8053 51.9833 12.912C51.9833 13.0187 51.9726 13.1253 51.9513 13.232L51.8393 14C51.7219 14.768 51.3539 15.312 50.7353 15.632C50.1166 15.9413 49.3166 16.096 48.3353 16.096ZM56.8755 16.096C56.0542 16.096 55.3928 15.9787 54.8915 15.744C54.3902 15.4987 54.0222 15.1413 53.7875 14.672C53.5635 14.2027 53.4515 13.632 53.4515 12.96C53.4515 12.6613 53.4675 12.3733 53.4995 12.096C53.5315 11.808 53.5688 11.5307 53.6115 11.264C53.7502 10.3573 54.0062 9.616 54.3795 9.04C54.7528 8.45333 55.2435 8.02133 55.8515 7.744C56.4702 7.456 57.2008 7.312 58.0435 7.312C58.4808 7.312 58.8915 7.34933 59.2755 7.424C59.6595 7.49867 59.9955 7.62667 60.2835 7.808C60.5822 7.98933 60.8168 8.24533 60.9875 8.576C61.1582 8.896 61.2435 9.30133 61.2435 9.792C61.2435 10.3787 61.1422 10.864 60.9395 11.248C60.7368 11.6213 60.4542 11.9093 60.0915 12.112C59.7395 12.3147 59.3342 12.4587 58.8755 12.544C58.4168 12.6187 57.9368 12.656 57.4355 12.656C57.0088 12.656 56.6195 12.64 56.2675 12.608C55.9155 12.5653 55.6435 12.5173 55.4515 12.464C55.4302 12.5813 55.4142 12.704 55.4035 12.832C55.4035 12.9493 55.4035 13.0667 55.4035 13.184C55.4035 13.6853 55.5742 14.0533 55.9155 14.288C56.2675 14.512 56.8435 14.624 57.6435 14.624H60.3315L60.1395 15.792C59.7555 15.8667 59.2755 15.936 58.6995 16C58.1235 16.064 57.5155 16.096 56.8755 16.096ZM56.8915 11.52C57.4462 11.52 57.9048 11.472 58.2675 11.376C58.6408 11.28 58.9235 11.12 59.1155 10.896C59.3075 10.672 59.4035 10.3733 59.4035 10C59.4035 9.59467 59.2808 9.30133 59.0355 9.12C58.7902 8.928 58.4168 8.832 57.9155 8.832C57.4248 8.832 57.0195 8.93333 56.6995 9.136C56.3902 9.328 56.1448 9.616 55.9635 10C55.7928 10.384 55.6648 10.8533 55.5795 11.408C55.7608 11.44 55.9635 11.4667 56.1875 11.488C56.4222 11.5093 56.6568 11.52 56.8915 11.52ZM61.8971 16L63.2571 7.424H65.0011L65.0651 8.512C65.3851 8.20267 65.7478 7.93067 66.1531 7.696C66.5585 7.45067 67.0118 7.328 67.5131 7.328C67.7051 7.328 67.8758 7.33867 68.0251 7.36C68.1745 7.37067 68.3131 7.39733 68.4411 7.44L68.1531 9.408C67.9931 9.39733 67.8225 9.38667 67.6411 9.376C67.4705 9.36533 67.2891 9.36 67.0971 9.36C66.6171 9.36 66.1851 9.43467 65.8011 9.584C65.4171 9.73333 65.0918 9.904 64.8251 10.096L63.8811 16H61.8971Z" fill="#A9AEB1"/>
</svg>
